<?xml version="1.0" standalone="no"?>
<!DOCTYPE svg PUBLIC "-//W3C//DTD SVG 20010904//EN"
 "http://www.w3.org/TR/2001/REC-SVG-20010904/DTD/svg10.dtd">
<svg version="1.0" xmlns="http://www.w3.org/2000/svg"
 width="225.000000pt" height="225.000000pt" viewBox="0 0 225.000000 225.000000"
 preserveAspectRatio="xMidYMid meet">

<g transform="translate(0.000000,225.000000) scale(0.100000,-0.100000)"
fill="#000000" stroke="none">
<path d="M820 2032 c-355 -134 -355 -134 -160 -207 l111 -41 3 -100 c2 -54 5
-107 7 -117 3 -14 -45 -43 -236 -143 -132 -69 -247 -132 -255 -140 -12 -12
-12 -18 -2 -34 11 -19 8 -19 -116 -22 l-127 -3 0 -100 0 -100 48 -3 47 -3 0
-353 c0 -309 -2 -355 -15 -360 -13 -5 -15 -22 -13 -98 l3 -93 1010 0 1010 0 3
93 c2 76 0 93 -13 98 -13 5 -15 51 -15 360 l0 353 48 3 47 3 0 100 0 100 -127
3 c-124 3 -127 3 -116 22 10 16 10 22 -2 34 -8 8 -123 71 -255 140 -192 100
-239 129 -236 143 2 10 5 63 7 118 l3 99 36 13 c34 12 35 11 35 -13 0 -14 -9
-37 -20 -51 -11 -14 -20 -33 -20 -43 0 -10 9 -29 20 -43 12 -14 20 -40 20 -61
0 -34 1 -36 35 -36 34 0 35 1 35 38 0 20 7 46 15 56 19 26 19 70 0 86 -10 8
-15 30 -15 60 0 48 0 48 42 62 44 15 65 36 56 60 -6 14 -565 228 -596 228 -9
-1 -145 -49 -302 -108z m529 -43 c119 -44 219 -84 223 -87 4 -4 -95 -46 -220
-93 l-227 -85 -228 86 c-155 58 -224 88 -215 94 20 12 420 164 437 165 8 1
112 -35 230 -80z m-357 -289 l133 -50 133 50 c73 28 137 50 142 50 6 0 10 -31
10 -71 0 -66 -2 -73 -29 -98 -48 -45 -129 -66 -256 -66 -127 0 -208 21 -256
66 -27 25 -29 32 -29 98 0 40 4 71 10 71 5 0 69 -22 142 -50z m-65 -227 c68
-23 94 -27 198 -27 105 0 130 4 201 28 l81 28 189 -99 189 -98 -327 -3 c-179
-1 -476 -1 -659 0 l-333 3 184 97 c102 53 188 97 192 97 4 1 43 -11 85 -26z
m903 -278 l0 -35 -705 0 -705 0 0 35 0 35 705 0 705 0 0 -35z m-1480 -58 c0
-13 5 -28 12 -35 9 -9 -18 -12 -125 -12 l-137 0 0 35 0 35 125 0 c124 0 125 0
125 -23z m1800 -12 l0 -35 -137 0 c-107 0 -134 3 -125 12 7 7 12 22 12 35 0
23 1 23 125 23 l125 0 0 -35z m-1622 -422 l-3 -388 -32 -3 -33 -3 0 390 0 391
35 0 35 0 -2 -387z m172 -3 l0 -390 -50 0 -50 0 0 390 0 390 50 0 50 0 0 -390z
m148 3 l-3 -388 -35 0 -35 0 -3 388 -2 387 40 0 40 0 -2 -387z m490 0 l-3
-388 -35 0 -35 0 -5 170 c-6 191 -10 203 -76 235 -51 25 -67 25 -118 0 -66
-32 -70 -44 -76 -235 l-5 -170 -35 0 -35 0 -3 388 -2 387 215 0 215 0 -2 -387z
m140 0 l-3 -388 -35 0 -35 0 -3 388 -2 387 40 0 40 0 -2 -387z m172 -3 l0
-390 -50 0 -50 0 0 390 0 390 50 0 50 0 0 -390z m140 -1 l0 -390 -32 3 -33 3
-3 388 -2 387 35 0 35 0 0 -391z m-1402 -31 l-3 -353 -87 -3 -88 -3 0 356 0
355 90 0 90 0 -2 -352z m1652 -3 l0 -356 -87 3 -88 3 -3 353 -2 352 90 0 90 0
0 -355z m-873 -10 c11 -8 23 -24 26 -35 5 -19 1 -20 -68 -20 -69 0 -73 1 -68
20 12 44 70 63 110 35z m31 -232 l-3 -108 -70 0 -70 0 -3 108 -3 107 76 0 76
0 -3 -107z m877 -213 l0 -35 -950 0 -950 0 -3 23 c-8 56 -71 52 955 50 l948
-3 0 -35z"/>
</g>
</svg>
