<?xml version="1.0" standalone="no"?>
<!DOCTYPE svg PUBLIC "-//W3C//DTD SVG 20010904//EN"
 "http://www.w3.org/TR/2001/REC-SVG-20010904/DTD/svg10.dtd">
<svg version="1.0" xmlns="http://www.w3.org/2000/svg"
 width="225.000000pt" height="225.000000pt" viewBox="0 0 225.000000 225.000000"
 preserveAspectRatio="xMidYMid meet">

<g transform="translate(0.000000,225.000000) scale(0.100000,-0.100000)"
fill="#000000" stroke="none">
<path d="M1102 2148 c-9 -9 -12 -75 -12 -238 l0 -225 -78 -78 -77 -77 -330 0
c-182 0 -335 -4 -340 -8 -21 -14 -259 -397 -259 -417 -1 -17 7 -21 49 -25 l50
-5 0 -460 0 -460 -45 -3 c-53 -4 -64 -12 -55 -41 l6 -21 1114 0 c980 0 1114 2
1119 15 11 30 -5 44 -52 47 l-47 3 0 460 0 460 50 5 c42 4 50 8 49 25 0 18
-182 315 -241 393 l-24 32 -332 0 -332 0 -78 78 -77 77 0 68 0 67 170 0 c197
0 200 2 151 78 -17 27 -31 52 -31 56 0 4 14 27 31 52 20 30 28 51 24 64 -6 19
-16 20 -176 20 l-169 0 0 23 c0 24 -17 47 -35 47 -6 0 -16 -5 -23 -12z m308
-125 c0 -5 -9 -21 -20 -38 -19 -29 -19 -30 0 -63 11 -18 20 -35 20 -38 0 -2
-56 -4 -125 -4 l-125 0 0 75 0 75 125 0 c69 0 125 -3 125 -7z m-5 -673 l270
-270 202 0 203 0 0 -465 0 -465 -355 0 -355 0 0 240 c0 199 -3 246 -16 271
-25 49 -64 59 -236 59 -135 0 -157 -2 -186 -20 -18 -11 -37 -32 -42 -46 -6
-14 -10 -133 -10 -265 l0 -239 -355 0 -355 0 0 465 0 465 203 0 202 0 270 270
c148 149 274 270 280 270 6 0 132 -121 280 -270z m-700 -50 l-160 -160 -222 0
c-123 0 -223 3 -223 6 0 4 44 76 98 160 l97 154 285 0 285 0 -160 -160z m1348
6 c53 -84 97 -156 97 -160 0 -3 -100 -6 -223 -6 l-222 0 -160 160 -160 160
285 0 285 0 98 -154z m-755 -696 l3 -35 -176 0 -175 0 0 31 c0 17 3 34 7 38 4
3 81 5 172 4 l166 -3 3 -35z m-208 -280 l0 -180 -70 0 -70 0 0 180 0 180 70 0
70 0 0 -180z m210 0 l0 -180 -70 0 -70 0 0 180 0 180 70 0 70 0 0 -180z"/>
<path d="M1013 1285 c-154 -78 -177 -283 -43 -397 118 -101 298 -64 373 77 15
29 21 59 22 105 0 55 -5 74 -31 120 -44 78 -104 114 -198 118 -61 3 -79 -1
-123 -23z m180 -49 c38 -16 94 -76 103 -112 11 -42 -2 -124 -23 -152 -65 -88
-182 -103 -264 -35 -79 66 -79 207 0 271 51 41 126 53 184 28z"/>
<path d="M1102 1198 c-7 -7 -12 -31 -12 -54 l0 -43 -47 -3 c-44 -3 -48 -5 -48
-28 0 -24 3 -25 68 -28 88 -4 97 4 97 82 0 59 -11 86 -35 86 -6 0 -16 -5 -23
-12z"/>
<path d="M262 948 c-8 -8 -12 -56 -12 -149 0 -116 2 -138 16 -143 29 -11 199
-7 212 6 15 15 17 251 2 279 -10 17 -22 19 -108 19 -63 0 -102 -4 -110 -12z
m158 -88 l0 -40 -55 0 -55 0 0 40 0 40 55 0 55 0 0 -40z m0 -120 c0 -18 -7
-20 -55 -20 -48 0 -55 2 -55 20 0 18 7 20 55 20 48 0 55 -2 55 -20z"/>
<path d="M571 941 c-6 -11 -11 -74 -11 -140 0 -152 -1 -151 123 -151 51 0 98
4 105 8 9 7 12 44 10 153 l-3 144 -107 3 c-98 2 -108 1 -117 -17z m169 -81 l0
-40 -55 0 -55 0 0 40 0 40 55 0 55 0 0 -40z m0 -120 c0 -18 -7 -20 -55 -20
-48 0 -55 2 -55 20 0 18 7 20 55 20 48 0 55 -2 55 -20z"/>
<path d="M1457 953 c-4 -3 -7 -70 -7 -149 0 -120 2 -143 16 -148 9 -3 55 -6
104 -6 120 0 120 1 120 145 0 63 -4 125 -10 139 -9 26 -11 26 -113 26 -57 0
-107 -3 -110 -7z m163 -93 l0 -40 -55 0 -55 0 0 40 0 40 55 0 55 0 0 -40z m0
-120 c0 -18 -7 -20 -55 -20 -48 0 -55 2 -55 20 0 18 7 20 55 20 48 0 55 -2 55
-20z"/>
<path d="M1772 948 c-8 -8 -12 -54 -12 -143 0 -89 4 -135 12 -143 13 -13 183
-17 212 -6 14 5 16 27 16 143 0 93 -4 141 -12 149 -16 16 -200 16 -216 0z
m168 -88 l0 -40 -55 0 -55 0 0 40 0 40 55 0 55 0 0 -40z m0 -120 c0 -18 -7
-20 -55 -20 -48 0 -55 2 -55 20 0 18 7 20 55 20 48 0 55 -2 55 -20z"/>
<path d="M254 527 c-2 -7 -3 -67 -2 -133 l3 -119 109 -3 c81 -2 112 1 118 10
13 21 10 232 -4 246 -17 17 -217 17 -224 -1z m166 -73 c0 -24 -2 -25 -52 -22
-46 3 -53 6 -56 26 -3 21 0 22 52 22 53 0 56 -1 56 -26z m0 -104 c0 -18 -7
-20 -55 -20 -48 0 -55 2 -55 20 0 18 7 20 55 20 48 0 55 -2 55 -20z"/>
<path d="M571 521 c-12 -21 -15 -208 -5 -235 5 -13 25 -16 120 -16 l115 0 -3
133 -3 132 -107 3 c-98 2 -108 1 -117 -17z m169 -66 c0 -24 -3 -25 -55 -25
-52 0 -55 1 -55 25 0 24 3 25 55 25 52 0 55 -1 55 -25z m0 -105 c0 -18 -7 -20
-55 -20 -48 0 -55 2 -55 20 0 18 7 20 55 20 48 0 55 -2 55 -20z"/>
<path d="M1457 533 c-4 -3 -7 -64 -7 -135 l0 -128 114 0 c95 0 115 3 120 16
10 26 7 214 -4 235 -10 17 -22 19 -114 19 -56 0 -106 -3 -109 -7z m163 -78 c0
-24 -3 -25 -55 -25 -52 0 -55 1 -55 25 0 24 3 25 55 25 52 0 55 -1 55 -25z m0
-105 c0 -18 -7 -20 -55 -20 -48 0 -55 2 -55 20 0 18 7 20 55 20 48 0 55 -2 55
-20z"/>
<path d="M1772 528 c-14 -14 -17 -225 -4 -246 6 -9 37 -12 118 -10 l109 3 0
130 0 130 -105 3 c-73 2 -109 -1 -118 -10z m166 -70 c-3 -20 -10 -23 -55 -26
-51 -3 -53 -2 -53 22 0 25 3 26 56 26 52 0 55 -1 52 -22z m2 -108 c0 -18 -7
-20 -55 -20 -48 0 -55 2 -55 20 0 18 7 20 55 20 48 0 55 -2 55 -20z"/>
</g>
</svg>
