<?xml version="1.0" standalone="no"?>
<!DOCTYPE svg PUBLIC "-//W3C//DTD SVG 20010904//EN"
 "http://www.w3.org/TR/2001/REC-SVG-20010904/DTD/svg10.dtd">
<svg version="1.0" xmlns="http://www.w3.org/2000/svg"
 width="198.000000pt" height="254.000000pt" viewBox="0 0 198.000000 254.000000"
 preserveAspectRatio="xMidYMid meet">

<g transform="translate(0.000000,254.000000) scale(0.100000,-0.100000)"
fill="#000000" stroke="none">
<path d="M955 2518 c-3 -7 -6 -100 -7 -207 l-3 -194 -237 -136 -238 -136 0
-117 0 -118 -168 0 c-154 0 -171 -2 -212 -22 -33 -17 -51 -35 -68 -68 l-22
-44 2 -731 3 -730 985 0 985 0 3 730 2 731 -22 44 c-17 33 -35 51 -68 68 -41
20 -58 22 -212 22 l-168 0 0 118 0 118 -237 135 -238 136 -5 204 -5 204 -33 3
c-20 2 -34 -2 -37 -10z m125 -528 c79 -40 125 -140 101 -222 -49 -166 -257
-201 -356 -60 -26 37 -30 53 -30 107 0 54 4 69 30 107 60 84 167 113 255 68z
m797 -483 l28 -27 3 -700 2 -700 -299 0 -300 0 -3 357 -3 358 -27 56 c-34 68
-87 123 -153 157 -42 22 -63 26 -135 26 -72 0 -93 -4 -135 -26 -66 -34 -119
-89 -153 -157 l-27 -56 -3 -357 -3 -358 -300 0 -299 0 2 699 c3 683 3 699 23
721 11 12 29 26 40 31 11 4 401 7 867 6 l848 -2 27 -28z m-777 -567 c20 -10
52 -36 70 -56 65 -74 65 -74 68 -456 l3 -348 -251 0 -251 0 3 348 c3 336 4
348 25 392 64 129 212 182 333 120z"/>
<path d="M962 1938 c-7 -7 -12 -43 -12 -90 0 -91 7 -98 93 -98 57 0 84 16 73
45 -4 11 -20 15 -56 15 l-50 0 0 58 c0 51 -11 82 -30 82 -3 0 -11 -5 -18 -12z"/>
<path d="M274 1376 c-35 -16 -44 -32 -44 -85 0 -46 23 -69 74 -78 60 -9 52
-23 -13 -23 l-61 0 0 -34 0 -34 59 -7 c109 -13 156 14 155 86 -2 49 -16 66
-68 81 -64 18 -65 28 -4 28 58 0 68 8 68 49 0 30 -111 41 -166 17z"/>
<path d="M575 1385 c-5 -2 -23 -6 -38 -9 -41 -10 -61 -62 -54 -149 3 -44 10
-74 21 -86 22 -24 74 -34 131 -25 43 6 45 8 45 40 l0 34 -49 0 c-54 0 -61 8
-61 64 0 43 16 56 67 56 42 0 43 0 43 35 0 31 -3 35 -27 35 -16 0 -37 2 -48 5
-11 2 -24 2 -30 0z"/>
<path d="M1080 1384 c-64 -23 -85 -57 -84 -139 2 -83 29 -119 101 -131 59 -9
110 10 130 49 31 61 17 177 -26 204 -22 13 -100 24 -121 17z m74 -108 c9 -48
-8 -88 -37 -84 -18 2 -23 10 -25 47 -4 57 2 71 32 71 19 0 25 -6 30 -34z"/>
<path d="M1353 1379 c-18 -5 -40 -20 -48 -32 -21 -33 -29 -106 -16 -155 16
-57 48 -77 124 -77 54 0 61 3 88 33 26 29 29 39 29 101 0 81 -20 114 -78 131
-43 12 -56 11 -99 -1z m82 -129 c0 -52 -1 -55 -27 -58 -22 -3 -27 2 -33 27 -4
17 -4 45 0 62 6 25 11 30 33 27 26 -3 27 -6 27 -58z"/>
<path d="M720 1250 l0 -130 45 0 45 0 0 45 c0 41 2 45 25 45 23 0 25 -4 25
-45 l0 -45 45 0 45 0 0 130 0 130 -45 0 -45 0 0 -50 c0 -47 -2 -50 -25 -50
-23 0 -25 3 -25 50 l0 50 -45 0 -45 0 0 -130z"/>
<path d="M1580 1250 l0 -130 85 0 85 0 0 35 c0 34 -1 35 -40 35 l-40 0 0 95 0
95 -45 0 -45 0 0 -130z"/>
<path d="M180 810 l0 -60 75 0 75 0 0 60 0 60 -75 0 -75 0 0 -60z"/>
<path d="M427 864 c-4 -4 -7 -31 -7 -61 l0 -53 80 0 81 0 -3 58 -3 57 -70 3
c-39 1 -74 0 -78 -4z"/>
<path d="M1407 864 c-4 -4 -7 -31 -7 -61 l0 -53 80 0 81 0 -3 58 -3 57 -70 3
c-39 1 -74 0 -78 -4z"/>
<path d="M1650 810 l0 -60 75 0 75 0 0 60 0 60 -75 0 -75 0 0 -60z"/>
<path d="M180 550 l0 -60 75 0 75 0 0 60 0 60 -75 0 -75 0 0 -60z"/>
<path d="M420 550 l0 -60 80 0 80 0 0 60 0 60 -80 0 -80 0 0 -60z"/>
<path d="M1400 550 l0 -60 80 0 80 0 0 60 0 60 -80 0 -80 0 0 -60z"/>
<path d="M1650 550 l0 -60 75 0 75 0 0 60 0 60 -75 0 -75 0 0 -60z"/>
<path d="M180 300 l0 -60 75 0 75 0 0 60 0 60 -75 0 -75 0 0 -60z"/>
<path d="M420 300 l0 -60 80 0 80 0 0 60 0 60 -80 0 -80 0 0 -60z"/>
<path d="M1400 300 l0 -60 80 0 80 0 0 60 0 60 -80 0 -80 0 0 -60z"/>
<path d="M1650 300 l0 -60 75 0 75 0 0 60 0 60 -75 0 -75 0 0 -60z"/>
<path d="M1103 2485 l-33 -14 0 -131 0 -131 30 16 c42 22 85 19 146 -10 79
-37 102 -39 154 -13 l45 23 3 131 3 132 -47 -24 c-61 -31 -72 -30 -144 6 -65
33 -107 37 -157 15z"/>
</g>
</svg>
